<svg xmlns="http://www.w3.org/2000/svg" viewBox="0 0 950 600" width="100%" height="100%">
  <defs>
    <!-- Sci-Fi Glow & Blur Filters -->
    <filter id="glow" x="-20%" y="-20%" width="140%" height="140%">
      <feGaussianBlur stdDeviation="3" result="blur" />
      <feMerge>
        <feMergeNode in="blur" />
        <feMergeNode in="SourceGraphic" />
      </feMerge>
    </filter>

    <filter id="laser-glow" x="-30%" y="-100%" width="160%" height="300%">
      <feGaussianBlur stdDeviation="5" result="blur1" />
      <feGaussianBlur stdDeviation="1" result="blur2" />
      <feMerge>
        <feMergeNode in="blur1" />
        <feMergeNode in="blur2" />
        <feMergeNode in="SourceGraphic" />
      </feMerge>
    </filter>

    <!-- Scan Beam Gradient -->
    <linearGradient id="scanBeamGrad" x1="0%" y1="0%" x2="0%" y2="100%">
      <stop offset="0%" stop-color="#00f3ff" stop-opacity="0" />
      <stop offset="70%" stop-color="#00f3ff" stop-opacity="0.3" />
      <stop offset="100%" stop-color="#38bdf8" stop-opacity="0.9" />
    </linearGradient>

    <!-- CRT Scanline Pattern -->
    <pattern id="scanlines" width="100" height="4" patternUnits="userSpaceOnUse">
      <line x1="0" y1="0" x2="100" y2="0" stroke="#000000" stroke-width="1.5" opacity="0.4" />
    </pattern>

    <!-- Halftone Dot Grid Pattern -->
    <pattern id="dotMatrix" width="5" height="5" patternUnits="userSpaceOnUse">
      <circle cx="2.5" cy="2.5" r="1.1" fill="#38bdf8" opacity="0.4" />
    </pattern>

    <!-- Profile Area Clip Path -->
    <clipPath id="photoClip">
      <rect x="52" y="112" width="376" height="376" rx="10" />
    </clipPath>

    <style>
      @keyframes scan {
        0% { transform: translateY(0px); opacity: 0; }
        10% { opacity: 1; }
        90% { opacity: 1; }
        100% { transform: translateY(380px); opacity: 0; }
      }
      @keyframes blink {
        0%, 100% { opacity: 1; }
        50% { opacity: 0.3; }
      }
      .scanner-beam {
        animation: scan 3s ease-in-out infinite alternate;
      }
      .live-dot {
        animation: blink 1.8s infinite ease-in-out;
      }
      .text-font {
        font-family: 'JetBrains Mono', 'Fira Code', 'Courier New', monospace;
      }
    </style>
  </defs>

  <!-- Dark Background -->
  <rect width="950" height="600" fill="#040b14" rx="16" />

  <!-- Outer HUD Frame -->
  <rect x="18" y="18" width="914" height="564" rx="14" fill="#05101f" stroke="#0284c7" stroke-width="2" />
  
  <!-- Outer Corner HUD Accents -->
  <path d="M 28 45 L 28 28 L 45 28" fill="none" stroke="#38bdf8" stroke-width="3" />
  <path d="M 922 45 L 922 28 L 905 28" fill="none" stroke="#38bdf8" stroke-width="3" />
  <path d="M 28 555 L 28 572 L 45 572" fill="none" stroke="#38bdf8" stroke-width="3" />
  <path d="M 922 555 L 922 572 L 905 572" fill="none" stroke="#38bdf8" stroke-width="3" />

  <!-- Window Header / Tabs -->
  <circle cx="50" cy="46" r="6" fill="#ef4444" />
  <circle cx="70" cy="46" r="6" fill="#f59e0b" />
  <circle cx="90" cy="46" r="6" fill="#10b981" />
  
  <text x="120" y="51" fill="#38bdf8" font-size="14" font-weight="700" class="text-font">elango_profile.md &gt;_</text>

  <g transform="translate(560, 36)" font-size="12" class="text-font" fill="#67e8f9">
    <text x="0" y="15">&lt;/&gt; Code</text>
    <text x="75" y="15">◫ Projects</text>
    <text x="165" y="15">⊟ Experience</text>
    <text x="270" y="15">✉ Contact</text>
  </g>

  <!-- ================= LEFT PANEL: VISUAL.MAP ================= -->
  <rect x="42" y="78" width="396" height="452" rx="10" fill="#041527" stroke="#0ea5e9" stroke-width="1.8" />
  
  <!-- VISUAL.MAP Header Tag -->
  <path d="M 52 78 L 165 78 L 175 96 L 52 96 Z" fill="#0284c7" opacity="0.3" />
  <text x="60" y="91" fill="#38bdf8" font-size="11" font-weight="800" class="text-font" letter-spacing="1.5">VISUAL.MAP</text>

  <!-- Scanning Target Viewport -->
  <g clip-path="url(#photoClip)">
    <!-- Base Hologram Layer -->
    <rect x="52" y="112" width="376" height="376" fill="#031b2e" />

    <!-- Replace the href below with a direct raw URL of your portrait for full clarity -->
    <image href="https://encrypted-tbn0.gstatic.com/images?q=tbn:ANd9GcR9tkyD1bTfH6LOuwGIuuN7-6HNqe0RLDZqG8nvmMn2Qw&s" 
           x="52" y="112" width="376" height="376" 
           preserveAspectRatio="xMidYMid slice" 
           opacity="0.85" />

    <!-- Cyber Matrix Scanline & Dots overlay -->
    <rect x="52" y="112" width="376" height="376" fill="url(#dotMatrix)" mix-blend-mode="screen" />
    <rect x="52" y="112" width="376" height="376" fill="url(#scanlines)" />

    <!-- Sci-Fi Reticle Overlay -->
    <circle cx="240" cy="300" r="130" stroke="#0ea5e9" stroke-width="1" stroke-dasharray="8 6" fill="none" opacity="0.4" />
    <circle cx="240" cy="300" r="100" stroke="#38bdf8" stroke-width="1" stroke-dasharray="4 4" fill="none" opacity="0.3" />
    <line x1="240" y1="120" x2="240" y2="480" stroke="#0284c7" stroke-width="0.8" stroke-dasharray="4 8" opacity="0.4" />
    <line x1="60" y1="300" x2="420" y2="300" stroke="#0284c7" stroke-width="0.8" stroke-dasharray="4 8" opacity="0.4" />

    <!-- ANIMATED SCANNING BEAM -->
    <g class="scanner-beam">
      <rect x="52" y="100" width="376" height="35" fill="url(#scanBeamGrad)" />
      <line x1="52" y1="135" x2="428" y2="135" stroke="#67e8f9" stroke-width="2.5" filter="url(#laser-glow)" />
      <circle cx="70" cy="135" r="3" fill="#ffffff" filter="url(#glow)" />
      <circle cx="410" cy="135" r="3" fill="#ffffff" filter="url(#glow)" />
    </g>
  </g>

  <!-- Left Footer Status -->
  <text x="56" y="515" fill="#38bdf8" font-size="11.5" class="text-font">&gt; Scanning profile...</text>
  <text x="390" y="515" fill="#38bdf8" font-size="11.5" class="text-font" font-weight="700">100%</text>


  <!-- ================= RIGHT PANEL: SYSTEM.INFO ================= -->
  <rect x="460" y="78" width="450" height="452" rx="10" fill="#041527" stroke="#0ea5e9" stroke-width="1.8" />
  
  <!-- SYSTEM.INFO Header Tag -->
  <path d="M 470 78 L 590 78 L 600 96 L 470 96 Z" fill="#0284c7" opacity="0.3" />
  <text x="478" y="91" fill="#38bdf8" font-size="11" font-weight="800" class="text-font" letter-spacing="1.5">SYSTEM.INFO</text>
  
  <circle cx="830" cy="89" r="4.5" fill="#22c55e" class="live-dot" />
  <text x="842" y="93" fill="#22c55e" font-size="11.5" font-weight="bold" class="text-font">Online</text>

  <!-- Identity Info -->
  <g transform="translate(480, 115)">
    <!-- User Icon -->
    <circle cx="16" cy="14" r="8" stroke="#38bdf8" stroke-width="2" fill="none" />
    <path d="M 6 32 C 6 24, 26 24, 26 32" stroke="#38bdf8" stroke-width="2" fill="none" />
    
    <text x="42" y="16" fill="#38bdf8" font-size="20" font-weight="800" class="text-font">Elango S</text>
    <text x="42" y="34" fill="#94a3b8" font-size="11" class="text-font">AI/ML Engineer  •  Python Developer  •  AI Agents &amp; RAG</text>
  </g>

  <!-- Key-Value Metadata -->
  <g transform="translate(480, 175)" font-size="11.5" class="text-font">
    <text x="0" y="0" fill="#00f3ff">&gt;&gt; Role</text>
    <text x="160" y="0" fill="#e2e8f0">SDE in AI/ML (Internship)</text>

    <text x="0" y="22" fill="#00f3ff">⮞ Company</text>
    <text x="160" y="22" fill="#e2e8f0">Truminds Software Systems</text>

    <text x="0" y="44" fill="#00f3ff">📍 Location</text>
    <text x="160" y="44" fill="#e2e8f0"> India</text>

    <text x="0" y="66" fill="#00f3ff">💼 Experience</text>
    <text x="160" y="66" fill="#e2e8f0">4+ Years</text>

    <text x="0" y="88" fill="#00f3ff">🎯 Focus</text>
    <text x="160" y="88" fill="#e2e8f0">AI Agents • RAG • Full Stack • System Design</text>
  </g>

  <!-- Tech Stack Badges -->
  <g transform="translate(480, 290)">
    <text x="0" y="0" fill="#38bdf8" font-size="12" font-weight="700" class="text-font">⚙ Tech Stack</text>
    
    <!-- Row 1 -->
    <g transform="translate(0, 10)">
      <rect x="0" y="0" width="55" height="20" rx="10" stroke="#0284c7" fill="#082f49" />
      <text x="10" y="14" fill="#7dd3fc" font-size="10" class="text-font">Python</text>

      <rect x="62" y="0" width="56" height="20" rx="10" stroke="#0284c7" fill="#082f49" />
      <text x="71" y="14" fill="#7dd3fc" font-size="10" class="text-font">FastAPI</text>

      <rect x="125" y="0" width="50" height="20" rx="10" stroke="#0284c7" fill="#082f49" />
      <text x="135" y="14" fill="#7dd3fc" font-size="10" class="text-font">React</text>

      <rect x="182" y="0" width="70" height="20" rx="10" stroke="#0284c7" fill="#082f49" />
      <text x="190" y="14" fill="#7dd3fc" font-size="10" class="text-font">TypeScript</text>

      <rect x="259" y="0" width="75" height="20" rx="10" stroke="#0284c7" fill="#082f49" />
      <text x="265" y="14" fill="#7dd3fc" font-size="10" class="text-font">LangGraph</text>

      <rect x="341" y="0" width="55" height="20" rx="10" stroke="#0284c7" fill="#082f49" />
      <text x="350" y="14" fill="#7dd3fc" font-size="10" class="text-font">Docker</text>
    </g>

    <!-- Row 2 -->
    <g transform="translate(0, 36)">
      <rect x="0" y="0" width="52" height="20" rx="10" stroke="#0284c7" fill="#082f49" />
      <text x="9" y="14" fill="#7dd3fc" font-size="10" class="text-font">MySQL</text>

      <rect x="58" y="0" width="50" height="20" rx="10" stroke="#0284c7" fill="#082f49" />
      <text x="69" y="14" fill="#7dd3fc" font-size="10" class="text-font">Neo4j</text>

      <rect x="115" y="0" width="54" height="20" rx="10" stroke="#0284c7" fill="#082f49" />
      <text x="124" y="14" fill="#7dd3fc" font-size="10" class="text-font">Qdrant</text>

      <rect x="176" y="0" width="55" height="20" rx="10" stroke="#0284c7" fill="#082f49" />
      <text x="187" y="14" fill="#7dd3fc" font-size="10" class="text-font">SQLite</text>

      <rect x="238" y="0" width="52" height="20" rx="10" stroke="#0284c7" fill="#082f49" />
      <text x="248" y="14" fill="#7dd3fc" font-size="10" class="text-font">GitHub</text>

      <rect x="297" y="0" width="60" height="20" rx="10" stroke="#0284c7" fill="#082f49" />
      <text x="306" y="14" fill="#7dd3fc" font-size="10" class="text-font">Postman</text>
    </g>
  </g>

  <!-- Featured Projects -->
  <g transform="translate(480, 368)" font-size="11" class="text-font">
    <text x="0" y="0" fill="#38bdf8" font-size="12" font-weight="700">📁 Featured Projects</text>
    <!-- <text x="10" y="18" fill="#38bdf8">• MUBIS</text>
    <text x="145" y="18" fill="#94a3b8">Employee productivity &amp; behavior intelligence</text> -->

    <text x="10" y="34" fill="#38bdf8">• Graph RAG</text>
    <text x="145" y="34" fill="#94a3b8">Graph-based retrieval with Neo4j</text>

    <text x="10" y="50" fill="#38bdf8">• Vectorless RAG</text>
    <text x="145" y="50" fill="#94a3b8">Document-structure based retrieval</text>

    <text x="10" y="66" fill="#38bdf8">• Feedback Loop Agent</text>
    <text x="145" y="66" fill="#94a3b8">LLM feedback-driven prompt improvement</text>
  </g>

  <!-- Links Section -->
  <g transform="translate(480, 460)">
    <text x="0" y="0" fill="#38bdf8" font-size="12" font-weight="700" class="text-font">🔗 Links</text>
    
    <a href="https://github.com/S-ELANGO" target="_blank" style="cursor: pointer;">
      <rect x="0" y="10" width="125" height="34" rx="6" fill="#082f49" stroke="#0ea5e9" stroke-width="1" />
      <path d="M 18 20 C 13 20 9 24 9 29 C 9 33 12 36 15 37 C 15.5 37.1 15.5 36.8 15.5 36.5 L 15.5 34.8 C 12.8 35.4 12.2 34.1 12.2 34.1 C 11.8 33 11.1 32.7 11.1 32.7 C 10.2 32.1 11.2 32.1 11.2 32.1 C 12.2 32.2 12.7 33.1 12.7 33.1 C 13.5 34.6 15 34.1 15.6 33.9 C 15.7 33.3 15.9 32.9 16.2 32.7 C 14 32.4 11.7 31.5 11.7 27.6 C 11.7 26.5 12.1 25.6 12.8 24.9 C 12.7 24.6 12.3 23.5 12.9 22.1 C 12.9 22.1 13.8 21.8 15.7 23.1 C 16.5 22.9 17.4 22.8 18.3 22.8 C 19.2 22.8 20.1 22.9 20.9 23.1 C 22.8 21.8 23.7 22.1 23.7 22.1 C 24.3 23.5 23.9 24.6 23.8 24.9 C 24.5 25.6 24.9 26.5 24.9 27.6 C 24.9 31.5 22.6 32.4 20.4 32.6 C 20.8 33 21.1 33.6 21.1 34.6 L 21.1 36.5 C 21.1 36.8 21.2 37.1 21.7 37 C 24.7 36 27.6 33 27.6 29 C 27.6 24 23.3 20 18 20 Z" fill="#38bdf8" />
      <text x="34" y="24" fill="#38bdf8" font-size="9" font-weight="700" class="text-font">GitHub</text>
      <text x="34" y="36" fill="#94a3b8" font-size="8.5" class="text-font">/S-ELANGO</text>
    </a>

    <a href="https://linkedin.com/in/elango-s-elango" target="_blank" style="cursor: pointer;">
      <rect x="140" y="10" width="135" height="34" rx="6" fill="#082f49" stroke="#0ea5e9" stroke-width="1" />
      <rect x="150" y="20" width="14" height="14" rx="2" fill="#0284c7" />
      <text x="153" y="31" fill="#ffffff" font-size="10" font-weight="bold" class="text-font">in</text>
      <text x="172" y="24" fill="#38bdf8" font-size="9" font-weight="700" class="text-font">LinkedIn</text>
      <text x="172" y="36" fill="#94a3b8" font-size="8" class="text-font">/in/elango-s-elango</text>
    </a>

    <g transform="translate(290, 10)">
      <rect x="0" y="0" width="125" height="34" rx="6" fill="#082f49" stroke="#0284c7" stroke-dasharray="3 3" />
      <text x="12" y="16" fill="#38bdf8" font-size="10" class="text-font">&gt;_ More</text>
      <text x="12" y="28" fill="#64748b" font-size="8.5" class="text-font">(Coming Soon)</text>
    </g>
  </g>

  <!-- Bottom Terminal Status Bar -->
  <text x="475" y="562" fill="#00f3ff" font-size="11" font-weight="700" letter-spacing="3" text-anchor="middle" class="text-font">
    LEARN  •  BUILD  •  SOLVE  •  REPEAT
  </text>
</svg>


